<svg width="390" height="501" viewBox="0 0 390 401" fill="none" xmlns="http://www.w3.org/2000/svg">
<path d="M261.292 184.255L256.552 179.516L263.74 172.333C270.312 165.745 270.318 155.042 263.74 148.479C260.547 145.281 256.313 143.526 251.802 143.526C247.297 143.526 243.062 145.281 239.875 148.474C230.677 157.651 215.714 157.651 206.516 148.479C197.328 139.276 197.328 124.313 206.516 115.12L211.255 119.854C204.677 126.438 204.677 137.151 211.255 143.74C217.833 150.307 228.552 150.307 235.135 143.734C239.583 139.281 245.505 136.828 251.802 136.828C258.104 136.828 264.026 139.281 268.479 143.74C277.672 152.912 277.672 167.865 268.479 177.073L261.292 184.255Z" fill="#FF914D"/>
<mask id="mask0_3_3642" style="mask-type:luminance" maskUnits="userSpaceOnUse" x="206" y="91" width="6" height="14">
<path d="M206 91.4426H211.333V104.5H206V91.4426Z" fill="white"/>
</mask>
<g mask="url(#mask0_3_3642)">
<path d="M206.469 91.4426H211.297V103.208H206.469V91.4426Z" fill="#004AAD"/>
</g>
<path d="M199.667 106.344L193.781 96.1615L197.964 93.7449L203.854 103.927L199.667 106.344Z" fill="#004AAD"/>
<path d="M195.281 112.432L185.094 106.547L187.516 102.359L197.703 108.245L195.281 112.432Z" fill="#004AAD"/>
<path d="M182.822 115.073H194.588V119.901H182.822V115.073Z" fill="#004AAD"/>
<path d="M219.838 141.271L213.947 131.078L218.135 128.661L224.02 138.854L219.838 141.271Z" fill="#004AAD"/>
<path d="M230.24 132.625L220.053 126.745L222.475 122.557L232.657 128.438L230.24 132.625Z" fill="#004AAD"/>
<path d="M223.182 115.073H234.952V119.901H223.182V115.073Z" fill="#004AAD"/>
<path d="M222.479 112.438L220.057 108.255L230.244 102.37L232.666 106.552L222.479 112.438Z" fill="#004AAD"/>
<path d="M218.126 106.323L213.943 103.911L219.824 93.7239L224.011 96.1405L218.126 106.323Z" fill="#004AAD"/>
<mask id="mask1_3_3642" style="mask-type:luminance" maskUnits="userSpaceOnUse" x="116" y="175" width="150" height="150">
<path d="M116.006 175.167H266.001V324.443H116.006V175.167Z" fill="white"/>
</mask>
<g mask="url(#mask1_3_3642)">
<path d="M265.246 249.99C265.246 291.12 231.897 324.443 190.783 324.443C149.647 324.443 116.309 291.12 116.309 249.99C116.309 208.885 149.647 175.562 190.783 175.562C231.902 175.562 265.246 208.885 265.246 249.99Z" fill="white"/>
</g>
<path d="M144.652 242.734C143.902 242.734 143.141 242.62 142.391 242.38C138.475 241.135 136.308 236.948 137.553 233.031C143.027 215.823 156.579 202.276 173.803 196.797C177.719 195.557 181.912 197.719 183.157 201.641C184.402 205.557 182.235 209.745 178.318 210.989C165.688 215 155.761 224.927 151.745 237.542C150.74 240.713 147.808 242.734 144.652 242.734Z" fill="#04266D"/>
<path d="M269.589 202.802C270.902 201.49 271.714 199.682 271.714 197.682C271.714 195.682 270.902 193.87 269.589 192.557L248.251 171.219C246.938 169.906 245.126 169.094 243.12 169.099C241.115 169.099 239.308 169.911 237.995 171.219L225.225 183.995L256.813 215.578L269.589 202.802Z" fill="#3871C1"/>
<mask id="mask2_3_3642" style="mask-type:luminance" maskUnits="userSpaceOnUse" x="180" y="227" width="46" height="57">
<path d="M180.666 227.167H225.999V283.167H180.666V227.167Z" fill="white"/>
</mask>
<g mask="url(#mask2_3_3642)">
<mask id="mask3_3_3642" style="mask-type:luminance" maskUnits="userSpaceOnUse" x="178" y="222" width="67" height="65">
<path d="M220.801 222.812L244.509 255.031L201.816 286.438L178.113 254.219L220.801 222.812Z" fill="white"/>
</mask>
<g mask="url(#mask3_3_3642)">
<mask id="mask4_3_3642" style="mask-type:luminance" maskUnits="userSpaceOnUse" x="178" y="222" width="67" height="65">
<path d="M220.801 222.812L244.509 255.031L201.816 286.438L178.113 254.219L220.801 222.812Z" fill="white"/>
</mask>
<g mask="url(#mask4_3_3642)">
<mask id="mask5_3_3642" style="mask-type:luminance" maskUnits="userSpaceOnUse" x="178" y="222" width="67" height="65">
<path d="M220.801 222.812L244.509 255.031L201.816 286.438L178.113 254.219L220.801 222.812Z" fill="white"/>
</mask>
<g mask="url(#mask5_3_3642)">
<path d="M202.182 268.542L194.625 260.292C196.182 258.182 196.52 255.375 195.494 252.932L210.401 243.578L225.255 228.885L224.802 228.271L206.354 238.078L192.817 249.646C190.26 247.891 186.781 247.838 184.151 249.776C180.822 252.229 180.114 256.917 182.572 260.255C184.567 262.974 188.046 263.953 191.067 262.906L196.697 272.578L207.546 282.213L208.156 281.766L202.182 268.542ZM184.854 258.573C183.333 256.5 183.77 253.588 185.838 252.068C187.244 251.031 189.046 250.911 190.536 251.599L190.52 251.615C191.031 251.849 191.51 252.167 191.921 252.583C191.937 252.599 191.947 252.609 191.958 252.62C192.093 252.76 192.218 252.906 192.338 253.068C192.421 253.177 192.489 253.292 192.562 253.406C192.765 253.75 192.911 254.109 193.026 254.479L193.036 254.469C193.411 255.693 193.265 257.021 192.64 258.125L192.635 258.12C192.322 258.672 191.901 259.172 191.359 259.573C190.812 259.974 190.208 260.229 189.588 260.359L189.593 260.365C187.854 260.74 185.979 260.099 184.854 258.573Z" fill="#04266D"/>
</g>
</g>
</g>
</g>
</svg>
